<svg width="20" height="20" viewBox="0 0 20 20" fill="none" xmlns="http://www.w3.org/2000/svg">
<g clip-path="url(#clip0_140_6)">
<path d="M19.2 10.7855L2.5 10.7855L5.6 13.7781C5.7 13.8778 5.8 14.0773 5.8 14.2768C5.8 14.4763 5.7 14.6758 5.6 14.7756C5.3 15.0748 4.9 15.0748 4.6 14.7756L0.200001 10.4863C0.100001 10.3865 4.20763e-07 10.187 4.38204e-07 9.98753C4.55645e-07 9.78803 0.100001 9.58853 0.200001 9.48878L4.6 5.1995C4.7 5.09975 4.9 5 5.1 5C5.3 5 5.5 5.09975 5.6 5.1995C5.7 5.29925 5.8 5.49875 5.8 5.69825C5.8 5.89775 5.7 6.09726 5.6 6.19701L2.4 9.28928L19.2 9.28928C19.7 9.28928 20 9.68828 20 10.0873C20 10.4863 19.7 10.7855 19.2 10.7855Z" fill="#0A0B0A"/>
</g>
<defs>
<clipPath id="clip0_140_6">
<rect width="20" height="20" fill="white"/>
</clipPath>
</defs>
</svg>
