{
	"asset":{
		"generator":"Khronos glTF Blender I/O v4.2.57",
		"version":"2.0"
	},
	"scene":0,
	"scenes":[
		{
			"name":"Scene",
			"nodes":[
				8
			]
		}
	],
	"nodes":[
		{
			"mesh":0,
			"name":"carbon_basetample_large"
		},
		{
			"mesh":1,
			"name":"carbon_glasses_large"
		},
		{
			"mesh":2,
			"name":"carbon_nosepart_large"
		},
		{
			"mesh":3,
			"name":"carbon_noserubber_large"
		},
		{
			"mesh":4,
			"name":"carbon_temple_large_l"
		},
		{
			"mesh":5,
			"name":"carbon_temple_large_r"
		},
		{
			"mesh":6,
			"name":"carbon_text_large",
			"rotation":[
				-0.7068101167678833,
				0,
				0,
				0.7074034214019775
			],
			"scale":[
				0.10002920031547546,
				0.10002918541431427,
				0.10002918541431427
			]
		},
		{
			"mesh":7,
			"name":"screw_carbon_large",
			"rotation":[
				-0.7068101167678833,
				0,
				0,
				0.7074034214019775
			],
			"scale":[
				0.10002920031547546,
				0.10002918541431427,
				0.10002918541431427
			]
		},
		{
			"children":[
				0,
				1,
				2,
				3,
				4,
				5,
				6,
				7
			],
			"mesh":8,
			"name":"carbon_base_large",
			"rotation":[
				0.7079494595527649,
				0,
				0,
				0.7062630653381348
			],
			"scale":[
				9.997078895568848,
				9.997081756591797,
				9.997081756591797
			],
			"translation":[
				0,
				0.5358613729476929,
				0
			]
		}
	],
	"meshes":[
		{
			"name":"Carbon-L_Rebuild-1@Carbon-L_Complete.001",
			"primitives":[
				{
					"attributes":{
						"POSITION":0,
						"NORMAL":1,
						"TEXCOORD_0":2
					},
					"indices":3
				}
			]
		},
		{
			"name":"Glasses.007",
			"primitives":[
				{
					"attributes":{
						"POSITION":4,
						"NORMAL":5
					},
					"indices":6
				}
			]
		},
		{
			"name":"Carbon_NosePadArms_L-1@Carbon-L_Complete",
			"primitives":[
				{
					"attributes":{
						"POSITION":7,
						"NORMAL":8,
						"TEXCOORD_0":9
					},
					"indices":10
				}
			]
		},
		{
			"name":"nosepad",
			"primitives":[
				{
					"attributes":{
						"POSITION":11,
						"NORMAL":12,
						"TEXCOORD_0":13
					},
					"indices":14
				}
			]
		},
		{
			"name":"TempleTip-BendToShape_Generic_Left-1@Carbon-L_Complete.001",
			"primitives":[
				{
					"attributes":{
						"POSITION":15,
						"NORMAL":16,
						"TEXCOORD_0":17
					},
					"indices":18
				}
			]
		},
		{
			"name":"TempleTip-BendToShape_Generic_Right-1@Carbon-L_Complete.001",
			"primitives":[
				{
					"attributes":{
						"POSITION":19,
						"NORMAL":20,
						"TEXCOORD_0":21
					},
					"indices":22
				}
			]
		},
		{
			"name":"Plane.004",
			"primitives":[
				{
					"attributes":{
						"POSITION":23,
						"NORMAL":24,
						"TEXCOORD_0":25
					},
					"indices":26
				}
			]
		},
		{
			"name":"Screw_M2x3mm_\ufffd4-1@LightHolder-Assembly.020",
			"primitives":[
				{
					"attributes":{
						"POSITION":27,
						"NORMAL":28,
						"TEXCOORD_0":29
					},
					"indices":30
				}
			]
		},
		{
			"name":"Carbon-L_Rebuild-1@Carbon-L_Complete.002",
			"primitives":[
				{
					"attributes":{
						"POSITION":31,
						"NORMAL":32,
						"TEXCOORD_0":33
					},
					"indices":34
				}
			]
		}
	],
	"accessors":[
		{
			"bufferView":0,
			"componentType":5126,
			"count":1915,
			"max":[
				0.0729748010635376,
				-0.00851154513657093,
				0.002721913158893585
			],
			"min":[
				-0.0730288028717041,
				-0.08966360986232758,
				-0.00481781642884016
			],
			"type":"VEC3"
		},
		{
			"bufferView":1,
			"componentType":5126,
			"count":1915,
			"type":"VEC3"
		},
		{
			"bufferView":2,
			"componentType":5126,
			"count":1915,
			"type":"VEC2"
		},
		{
			"bufferView":3,
			"componentType":5123,
			"count":4896,
			"type":"SCALAR"
		},
		{
			"bufferView":4,
			"componentType":5126,
			"count":2311,
			"max":[
				0.06217540055513382,
				-0.0009787848684936762,
				0.03154459223151207
			],
			"min":[
				-0.06222750246524811,
				-0.014457904733717442,
				-0.006344466470181942
			],
			"type":"VEC3"
		},
		{
			"bufferView":5,
			"componentType":5126,
			"count":2311,
			"type":"VEC3"
		},
		{
			"bufferView":6,
			"componentType":5123,
			"count":8820,
			"type":"SCALAR"
		},
		{
			"bufferView":7,
			"componentType":5126,
			"count":7233,
			"max":[
				0.013724501244723797,
				-0.0028350846841931343,
				0.015322593040764332
			],
			"min":[
				-0.013778499327600002,
				-0.0159665048122406,
				-0.004781586583703756
			],
			"type":"VEC3"
		},
		{
			"bufferView":8,
			"componentType":5126,
			"count":7233,
			"type":"VEC3"
		},
		{
			"bufferView":9,
			"componentType":5126,
			"count":7233,
			"type":"VEC2"
		},
		{
			"bufferView":10,
			"componentType":5123,
			"count":32922,
			"type":"SCALAR"
		},
		{
			"bufferView":11,
			"componentType":5126,
			"count":6646,
			"max":[
				0.014294200576841831,
				-0.006902744993567467,
				0.023472294211387634
			],
			"min":[
				-0.014348198659718037,
				-0.019391706213355064,
				-0.0019838856533169746
			],
			"type":"VEC3"
		},
		{
			"bufferView":12,
			"componentType":5126,
			"count":6646,
			"type":"VEC3"
		},
		{
			"bufferView":13,
			"componentType":5126,
			"count":6646,
			"type":"VEC2"
		},
		{
			"bufferView":14,
			"componentType":5123,
			"count":38322,
			"type":"SCALAR"
		},
		{
			"bufferView":15,
			"componentType":5126,
			"count":3477,
			"max":[
				0.07693590223789215,
				-0.0896357074379921,
				0.01558749284595251
			],
			"min":[
				0.05711139738559723,
				-0.158652201294899,
				-0.005330726504325867
			],
			"type":"VEC3"
		},
		{
			"bufferView":16,
			"componentType":5126,
			"count":3477,
			"type":"VEC3"
		},
		{
			"bufferView":17,
			"componentType":5126,
			"count":3477,
			"type":"VEC2"
		},
		{
			"bufferView":18,
			"componentType":5123,
			"count":18684,
			"type":"SCALAR"
		},
		{
			"bufferView":19,
			"componentType":5126,
			"count":3459,
			"max":[
				-0.05716539919376373,
				-0.0896357074379921,
				0.01558749284595251
			],
			"min":[
				-0.07698990404605865,
				-0.158652201294899,
				-0.005330726504325867
			],
			"type":"VEC3"
		},
		{
			"bufferView":20,
			"componentType":5126,
			"count":3459,
			"type":"VEC3"
		},
		{
			"bufferView":21,
			"componentType":5126,
			"count":3459,
			"type":"VEC2"
		},
		{
			"bufferView":22,
			"componentType":5123,
			"count":18618,
			"type":"SCALAR"
		},
		{
			"bufferView":23,
			"componentType":5126,
			"count":6,
			"max":[
				-0.7271632552146912,
				0.04070508852601051,
				-0.2197970598936081
			],
			"min":[
				-0.7306216955184937,
				-0.011474252678453922,
				-0.4626888334751129
			],
			"type":"VEC3"
		},
		{
			"bufferView":24,
			"componentType":5126,
			"count":6,
			"type":"VEC3"
		},
		{
			"bufferView":25,
			"componentType":5126,
			"count":6,
			"type":"VEC2"
		},
		{
			"bufferView":26,
			"componentType":5123,
			"count":6,
			"type":"SCALAR"
		},
		{
			"bufferView":27,
			"componentType":5126,
			"count":1412,
			"max":[
				0.7140852212905884,
				0.03413257747888565,
				-0.1319907307624817
			],
			"min":[
				-0.7140852212905884,
				-0.06494778394699097,
				-0.20468027889728546
			],
			"type":"VEC3"
		},
		{
			"bufferView":28,
			"componentType":5126,
			"count":1412,
			"type":"VEC3"
		},
		{
			"bufferView":29,
			"componentType":5126,
			"count":1412,
			"type":"VEC2"
		},
		{
			"bufferView":30,
			"componentType":5123,
			"count":3960,
			"type":"SCALAR"
		},
		{
			"bufferView":31,
			"componentType":5126,
			"count":9537,
			"max":[
				0.07164180278778076,
				0.00041772465920075774,
				0.0340568907558918
			],
			"min":[
				-0.07169580459594727,
				-0.01578640565276146,
				-0.009587796404957771
			],
			"type":"VEC3"
		},
		{
			"bufferView":32,
			"componentType":5126,
			"count":9537,
			"type":"VEC3"
		},
		{
			"bufferView":33,
			"componentType":5126,
			"count":9537,
			"type":"VEC2"
		},
		{
			"bufferView":34,
			"componentType":5123,
			"count":39762,
			"type":"SCALAR"
		}
	],
	"bufferViews":[
		{
			"buffer":0,
			"byteLength":22980,
			"byteOffset":0,
			"target":34962
		},
		{
			"buffer":0,
			"byteLength":22980,
			"byteOffset":22980,
			"target":34962
		},
		{
			"buffer":0,
			"byteLength":15320,
			"byteOffset":45960,
			"target":34962
		},
		{
			"buffer":0,
			"byteLength":9792,
			"byteOffset":61280,
			"target":34963
		},
		{
			"buffer":0,
			"byteLength":27732,
			"byteOffset":71072,
			"target":34962
		},
		{
			"buffer":0,
			"byteLength":27732,
			"byteOffset":98804,
			"target":34962
		},
		{
			"buffer":0,
			"byteLength":17640,
			"byteOffset":126536,
			"target":34963
		},
		{
			"buffer":0,
			"byteLength":86796,
			"byteOffset":144176,
			"target":34962
		},
		{
			"buffer":0,
			"byteLength":86796,
			"byteOffset":230972,
			"target":34962
		},
		{
			"buffer":0,
			"byteLength":57864,
			"byteOffset":317768,
			"target":34962
		},
		{
			"buffer":0,
			"byteLength":65844,
			"byteOffset":375632,
			"target":34963
		},
		{
			"buffer":0,
			"byteLength":79752,
			"byteOffset":441476,
			"target":34962
		},
		{
			"buffer":0,
			"byteLength":79752,
			"byteOffset":521228,
			"target":34962
		},
		{
			"buffer":0,
			"byteLength":53168,
			"byteOffset":600980,
			"target":34962
		},
		{
			"buffer":0,
			"byteLength":76644,
			"byteOffset":654148,
			"target":34963
		},
		{
			"buffer":0,
			"byteLength":41724,
			"byteOffset":730792,
			"target":34962
		},
		{
			"buffer":0,
			"byteLength":41724,
			"byteOffset":772516,
			"target":34962
		},
		{
			"buffer":0,
			"byteLength":27816,
			"byteOffset":814240,
			"target":34962
		},
		{
			"buffer":0,
			"byteLength":37368,
			"byteOffset":842056,
			"target":34963
		},
		{
			"buffer":0,
			"byteLength":41508,
			"byteOffset":879424,
			"target":34962
		},
		{
			"buffer":0,
			"byteLength":41508,
			"byteOffset":920932,
			"target":34962
		},
		{
			"buffer":0,
			"byteLength":27672,
			"byteOffset":962440,
			"target":34962
		},
		{
			"buffer":0,
			"byteLength":37236,
			"byteOffset":990112,
			"target":34963
		},
		{
			"buffer":0,
			"byteLength":72,
			"byteOffset":1027348,
			"target":34962
		},
		{
			"buffer":0,
			"byteLength":72,
			"byteOffset":1027420,
			"target":34962
		},
		{
			"buffer":0,
			"byteLength":48,
			"byteOffset":1027492,
			"target":34962
		},
		{
			"buffer":0,
			"byteLength":12,
			"byteOffset":1027540,
			"target":34963
		},
		{
			"buffer":0,
			"byteLength":16944,
			"byteOffset":1027552,
			"target":34962
		},
		{
			"buffer":0,
			"byteLength":16944,
			"byteOffset":1044496,
			"target":34962
		},
		{
			"buffer":0,
			"byteLength":11296,
			"byteOffset":1061440,
			"target":34962
		},
		{
			"buffer":0,
			"byteLength":7920,
			"byteOffset":1072736,
			"target":34963
		},
		{
			"buffer":0,
			"byteLength":114444,
			"byteOffset":1080656,
			"target":34962
		},
		{
			"buffer":0,
			"byteLength":114444,
			"byteOffset":1195100,
			"target":34962
		},
		{
			"buffer":0,
			"byteLength":76296,
			"byteOffset":1309544,
			"target":34962
		},
		{
			"buffer":0,
			"byteLength":79524,
			"byteOffset":1385840,
			"target":34963
		}
	],
	"buffers":[
		{
			"byteLength":1465364,
			"uri":"untitled.bin"
		}
	]
}
